# xmcd CD database file
#
# Track frame offsets:
#	150
#	28995
#	44512
#	79170
#	104752
#	128595
#	153115
#	182935
#	209757
#	248395
#	269945
#	298890
#
# Disc length: 4311 seconds
#
# Revision: 0
# Processed by: cddbd v1.5.1PL0 Copyright (c) Steve Scherf et al.
# Submitted via: CDex 1.51
#
DISCID=bb10d50c
DTITLE=The Sofferman Perspective - One Stone, Two Birds
DYEAR=2003
DGENRE=Jazz
TTITLE0=Mimi's Mambo
TTITLE1=Bo-Beh-Lo
TTITLE2=Purple Friggin' Dinosaur
TTITLE3=One Stone, Two Birds
TTITLE4=Ky By Sky
TTITLE5=Griegarious Skang
TTITLE6=Boppa's Bossa
TTITLE7=Uh-Ah-Ooo-Ah
TTITLE8=Sunbird
TTITLE9=Souberfish
TTITLE10=Triptophan
TTITLE11=Magnum P.I. Theme
EXTD=YEAR: 2003
EXTT0=
EXTT1=
EXTT2=
EXTT3=
EXTT4=
EXTT5=
EXTT6=
EXTT7=
EXTT8=
EXTT9=
EXTT10=
EXTT11=
PLAYORDER=
